<?xml version="1.0" encoding="iso-8859-1"?>
<!-- Generator: Adobe Illustrator 19.0.0, SVG Export Plug-In . SVG Version: 6.00 Build 0)  -->
<svg version="1.1" id="Capa_1" xmlns="http://www.w3.org/2000/svg" xmlns:xlink="http://www.w3.org/1999/xlink" x="0px" y="0px"
	 viewBox="0 0 512 512" style="enable-background:new 0 0 512 512;" xml:space="preserve">
<polyline style="fill:#C3DFAD;" points="266.927,504.395 266.927,107.03 75.318,107.03 75.318,231.636 75.318,504.395 "/>
<polyline style="fill:#625765;" points="99.641,504.395 75.318,504.395 47.944,504.395 7.846,504.395 7.846,231.636 75.318,231.636 
	"/>
<polyline style="fill:#76DBFF;" points="266.927,504.396 266.927,7.604 417.475,7.604 417.475,504.396 "/>
<rect x="47.936" y="309.288" style="fill:#BDC6C6;" width="121.653" height="195.107"/>
<rect x="369.38" y="315.371" style="fill:#625765;" width="134.772" height="189.024"/>
<rect x="205.591" y="232.63" style="fill:#94A2A2;" width="128.75" height="271.765"/>
<polygon style="fill:#76DBFF;" points="394.693,342.451 394.693,396.433 394.693,416.463 394.693,423.423 394.693,450.414 
	394.693,477.405 394.693,504.396 478.843,504.396 478.843,477.405 478.843,450.414 478.843,423.423 478.843,416.463 
	478.843,396.433 478.843,342.451 "/>
<path d="M504.155,307.765h-79.076V7.604c0-4.199-3.404-7.604-7.604-7.604H266.927c-4.2,0-7.604,3.405-7.604,7.604v91.822H75.318
	c-4.2,0-7.604,3.405-7.604,7.604v117.002H7.846c-4.2,0-7.604,3.405-7.604,7.604v272.759c0,4.199,3.404,7.604,7.604,7.604h40.077
	c0.007,0,0.013,0.001,0.019,0.001h121.656c0.007,0,0.013-0.001,0.019-0.001h35.95c0.007,0,0.013,0.001,0.019,0.001h128.754
	c0.007,0,0.013-0.001,0.019-0.001h35c0.007,0,0.013,0.001,0.019,0.001h25.312h84.15h25.312c4.2,0,7.604-3.405,7.604-7.604V315.369
	C511.759,311.17,508.356,307.765,504.155,307.765z M369.382,307.765c-4.2,0-7.604,3.405-7.604,7.604v20.421h-19.832v-39.976h67.926
	v11.951H369.382z M402.297,431.027h68.942v11.783h-68.942V431.027z M402.297,404.037h68.942v11.783h-68.942V404.037z
	 M471.239,388.829h-68.942v-11.783h68.942V388.829z M402.297,458.018h68.942v11.783h-68.942V458.018z M471.239,361.838h-68.942
	v-11.783h68.942V361.838z M197.984,316.89v23.119h-20.782V316.89H197.984z M197.984,454.989h-20.782V431.87h20.782V454.989z
	 M197.984,416.662h-20.782v-23.119h20.782V416.662z M197.984,378.335h-20.782v-23.119h20.782V378.335z M177.202,470.197h20.782
	v26.595h-20.782V470.197z M266.927,496.791h-53.736V240.236h23.322h30.414v0.401h59.811v256.154H266.927z M274.531,130.277h83.603
	c4.199,0,7.604-3.405,7.604-7.604l0,0c0-4.199-3.405-7.604-7.604-7.604h-83.603v-8.038V75.097h135.34v39.972H393.62
	c-4.199,0-7.604,3.405-7.604,7.604l0,0c0,4.199,3.405,7.604,7.604,7.604h16.251v39.972h-135.34V130.277z M409.871,280.606h-67.926
	v-39.969h67.926V280.606z M361.778,446.149h-19.832v-39.976h19.832V446.149z M361.778,390.964h-19.832v-39.966h19.832V390.964z
	 M274.531,185.456h135.34v39.571h-135.34V185.456z M341.946,461.357h19.832v35.434h-19.832V461.357z M409.871,15.208v44.681h-135.34
	V15.208H409.871z M259.323,114.634v110.393h-22.81h-30.926h-99.856c-4.2,0-7.604,3.405-7.604,7.604s3.404,7.604,7.604,7.604h92.252
	v23.119h-24.878c-4.2,0-7.604,3.405-7.604,7.604s3.404,7.604,7.604,7.604h24.878v23.119h-28.386h-63.866h-22.81V114.634H259.323z
	 M15.45,239.24h52.264v62.441H47.942c-4.199,0-7.604,3.405-7.604,7.604v111.74c0,4.199,3.405,7.604,7.604,7.604l0,0
	c4.199,0,7.604-3.405,7.604-7.604V316.89h50.186h56.262v179.901H99.641H75.318H55.546v-40.28c0-4.199-3.405-7.604-7.604-7.604l0,0
	c-4.199,0-7.604,3.405-7.604,7.604v40.28H15.45V239.24z M417.475,496.792L417.475,496.792l-15.178-0.001v-11.782h68.942v11.783
	H417.475z M496.551,496.792h-10.104v-19.387v-26.991v-26.991v-26.991v-26.991v-26.99c0-4.199-3.404-7.604-7.604-7.604h-84.15
	c-4.2,0-7.604,3.405-7.604,7.604v26.991v26.991v26.991v26.991v26.991v19.385h-10.104V322.973h119.566V496.792z"/>
<path d="M105.732,278.562h36.957c4.2,0,7.604-3.405,7.604-7.604s-3.404-7.604-7.604-7.604h-36.957c-4.2,0-7.604,3.405-7.604,7.604
	S101.531,278.562,105.732,278.562z"/>
<path d="M105.732,163.582h130.782c4.2,0,7.604-3.405,7.604-7.604s-3.404-7.604-7.604-7.604H105.732c-4.2,0-7.604,3.405-7.604,7.604
	S101.531,163.582,105.732,163.582z"/>
<path d="M105.732,201.909h130.782c4.2,0,7.604-3.405,7.604-7.604s-3.404-7.604-7.604-7.604H105.732c-4.2,0-7.604,3.405-7.604,7.604
	S101.531,201.909,105.732,201.909z"/>
<path d="M77.925,367.807c4.2,0,7.604-3.405,7.604-7.604v-17.236c0-4.199-3.404-7.604-7.604-7.604s-7.604,3.405-7.604,7.604v17.236
	C70.321,364.402,73.724,367.807,77.925,367.807z"/>
<path d="M139.615,367.807c4.2,0,7.604-3.405,7.604-7.604v-17.236c0-4.199-3.404-7.604-7.604-7.604c-4.2,0-7.604,3.405-7.604,7.604
	v17.236C132.011,364.402,135.415,367.807,139.615,367.807z"/>
<path d="M108.77,367.807c4.2,0,7.604-3.405,7.604-7.604v-17.236c0-4.199-3.404-7.604-7.604-7.604s-7.604,3.405-7.604,7.604v17.236
	C101.166,364.402,104.57,367.807,108.77,367.807z"/>
<path d="M77.925,478.318c4.2,0,7.604-3.405,7.604-7.604v-17.236c0-4.199-3.404-7.604-7.604-7.604s-7.604,3.405-7.604,7.604v17.236
	C70.321,474.913,73.724,478.318,77.925,478.318z"/>
<path d="M139.615,478.318c4.2,0,7.604-3.405,7.604-7.604v-17.236c0-4.199-3.404-7.604-7.604-7.604c-4.2,0-7.604,3.405-7.604,7.604
	v17.236C132.011,474.913,135.415,478.318,139.615,478.318z"/>
<path d="M108.77,478.318c4.2,0,7.604-3.405,7.604-7.604v-17.236c0-4.199-3.404-7.604-7.604-7.604s-7.604,3.405-7.604,7.604v17.236
	C101.166,474.913,104.57,478.318,108.77,478.318z"/>
<path d="M77.925,423.062c4.2,0,7.604-3.405,7.604-7.604v-17.236c0-4.199-3.404-7.604-7.604-7.604s-7.604,3.405-7.604,7.604v17.236
	C70.321,419.658,73.724,423.062,77.925,423.062z"/>
<path d="M139.615,423.062c4.2,0,7.604-3.405,7.604-7.604v-17.236c0-4.199-3.404-7.604-7.604-7.604c-4.2,0-7.604,3.405-7.604,7.604
	v17.236C132.011,419.658,135.415,423.062,139.615,423.062z"/>
<path d="M108.77,423.062c4.2,0,7.604-3.405,7.604-7.604v-17.236c0-4.199-3.404-7.604-7.604-7.604s-7.604,3.405-7.604,7.604v17.236
	C101.166,419.658,104.57,423.062,108.77,423.062z"/>
<path d="M239.12,354.369c-4.2,0-7.604,3.405-7.604,7.604v17.236c0,4.199,3.404,7.604,7.604,7.604c4.2,0,7.604-3.405,7.604-7.604
	v-17.236C246.724,357.774,243.321,354.369,239.12,354.369z"/>
<path d="M300.811,354.369c-4.2,0-7.604,3.405-7.604,7.604v17.236c0,4.199,3.404,7.604,7.604,7.604c4.2,0,7.604-3.405,7.604-7.604
	v-17.236C308.414,357.774,305.01,354.369,300.811,354.369z"/>
<path d="M269.965,354.369c-4.2,0-7.604,3.405-7.604,7.604v17.236c0,4.199,3.404,7.604,7.604,7.604c4.2,0,7.604-3.405,7.604-7.604
	v-17.236C277.569,357.774,274.165,354.369,269.965,354.369z"/>
<path d="M239.12,257.795c-4.2,0-7.604,3.405-7.604,7.604v17.236c0,4.199,3.404,7.604,7.604,7.604c4.2,0,7.604-3.405,7.604-7.604
	v-17.236C246.724,261.199,243.321,257.795,239.12,257.795z"/>
<path d="M300.811,257.795c-4.2,0-7.604,3.405-7.604,7.604v17.236c0,4.199,3.404,7.604,7.604,7.604c4.2,0,7.604-3.405,7.604-7.604
	v-17.236C308.414,261.199,305.01,257.795,300.811,257.795z"/>
<path d="M269.965,257.795c-4.2,0-7.604,3.405-7.604,7.604v17.236c0,4.199,3.404,7.604,7.604,7.604c4.2,0,7.604-3.405,7.604-7.604
	v-17.236C277.569,261.199,274.165,257.795,269.965,257.795z"/>
<path d="M239.12,306.081c-4.2,0-7.604,3.405-7.604,7.604v17.236c0,4.199,3.404,7.604,7.604,7.604c4.2,0,7.604-3.405,7.604-7.604
	v-17.236C246.724,309.486,243.321,306.081,239.12,306.081z"/>
<path d="M300.811,306.081c-4.2,0-7.604,3.405-7.604,7.604v17.236c0,4.199,3.404,7.604,7.604,7.604c4.2,0,7.604-3.405,7.604-7.604
	v-17.236C308.414,309.486,305.01,306.081,300.811,306.081z"/>
<path d="M269.965,306.081c-4.2,0-7.604,3.405-7.604,7.604v17.236c0,4.199,3.404,7.604,7.604,7.604c4.2,0,7.604-3.405,7.604-7.604
	v-17.236C277.569,309.486,274.165,306.081,269.965,306.081z"/>
<path d="M239.12,450.943c-4.2,0-7.604,3.405-7.604,7.604v17.236c0,4.199,3.404,7.604,7.604,7.604c4.2,0,7.604-3.405,7.604-7.604
	v-17.236C246.724,454.348,243.321,450.943,239.12,450.943z"/>
<path d="M300.811,450.943c-4.2,0-7.604,3.405-7.604,7.604v17.236c0,4.199,3.404,7.604,7.604,7.604c4.2,0,7.604-3.405,7.604-7.604
	v-17.236C308.414,454.348,305.01,450.943,300.811,450.943z"/>
<path d="M269.965,450.943c-4.2,0-7.604,3.405-7.604,7.604v17.236c0,4.199,3.404,7.604,7.604,7.604c4.2,0,7.604-3.405,7.604-7.604
	v-17.236C277.569,454.348,274.165,450.943,269.965,450.943z"/>
<path d="M239.12,402.656c-4.2,0-7.604,3.405-7.604,7.604v17.236c0,4.199,3.404,7.604,7.604,7.604c4.2,0,7.604-3.405,7.604-7.604
	V410.26C246.724,406.061,243.321,402.656,239.12,402.656z"/>
<path d="M300.811,402.656c-4.2,0-7.604,3.405-7.604,7.604v17.236c0,4.199,3.404,7.604,7.604,7.604c4.2,0,7.604-3.405,7.604-7.604
	V410.26C308.414,406.061,305.01,402.656,300.811,402.656z"/>
<path d="M269.965,402.656c-4.2,0-7.604,3.405-7.604,7.604v17.236c0,4.199,3.404,7.604,7.604,7.604c4.2,0,7.604-3.405,7.604-7.604
	V410.26C277.569,406.061,274.165,402.656,269.965,402.656z"/>
<g>
</g>
<g>
</g>
<g>
</g>
<g>
</g>
<g>
</g>
<g>
</g>
<g>
</g>
<g>
</g>
<g>
</g>
<g>
</g>
<g>
</g>
<g>
</g>
<g>
</g>
<g>
</g>
<g>
</g>
</svg>
